<svg width="418" height="337" viewBox="0 0 418 337" fill="none" xmlns="http://www.w3.org/2000/svg">
<path d="M363.921 310.251L221.279 17.4819C219.973 14.6384 217.23 12.3216 213.703 11.2684C213.05 11.0578 212.266 10.8472 211.482 10.7419C210.698 10.6366 209.915 10.5312 209 10.5312C208.086 10.5312 207.302 10.6366 206.518 10.7419C205.735 10.8472 204.951 11.0578 204.298 11.2684C201.032 12.3216 198.289 14.4278 196.852 17.1659L196.721 17.4819L53.1645 312.041C51.2052 315.937 52.3808 320.361 56.0383 323.309C58.5202 325.416 61.9164 326.469 65.3127 326.469C66.8802 326.469 68.4477 326.258 70.0152 325.732L209 282.975L347.985 325.732C349.553 326.258 351.12 326.469 352.688 326.469C352.818 326.469 352.818 326.469 352.949 326.469C360.133 326.469 366.011 321.73 366.011 315.938C366.011 313.831 365.228 311.936 363.921 310.251Z" fill="#2197F3"/>
<path d="M366.011 315.938C366.011 321.73 360.133 326.469 352.949 326.469C352.818 326.469 352.818 326.469 352.687 326.469C351.12 326.469 349.552 326.258 347.985 325.732L209 282.975V10.5312C209.914 10.5312 210.698 10.6366 211.482 10.7419C212.266 10.8472 213.049 11.0578 213.703 11.2684C217.229 12.3216 219.973 14.6384 221.279 17.4819L363.921 310.251C365.227 311.936 366.011 313.831 366.011 315.938Z" fill="#4BB0FF"/>
</svg>
