<?xml version="1.0" encoding="UTF-8"?>
<svg width="500pt" height="500pt" version="1.1" viewBox="100 25 500 500" xmlns="http://www.w3.org/2000/svg" xmlns:xlink="http://www.w3.org/1999/xlink">
 <g>
  <path d="m478.03 309.47c-21.5 0-41.406 6.8164-57.668 18.406-5.0625-7.9844-8.7852-14.711-11.266-19.5 3.8711-8.4688 6.0469-17.879 6.0469-27.797 0-10.375-2.3633-20.195-6.5742-28.957 3.3594-6.5625 7.6328-13.328 12.41-20.059 16.414 11.934 36.605 18.977 58.445 18.977 54.953 0 99.508-44.547 99.508-99.5 0-54.953-44.547-99.504-99.508-99.504-54.953 0-99.5 44.547-99.5 99.5 0 21.785 7.0039 41.922 18.871 58.309-8.1367 5.1641-15.07 9-20.156 11.625-9.1289-4.6719-19.465-7.3242-30.426-7.3242-8.9922 0-17.578 1.7852-25.414 5.0078-6.5898-2.8906-13.457-6.7266-20.332-11.133 11.082-16.043 17.59-35.504 17.59-56.48 0-54.953-44.547-99.5-99.508-99.5-54.953 0-99.5 44.547-99.5 99.5 0 54.953 44.547 99.5 99.5 99.5 22.188 0 42.672-7.2617 59.219-19.539 4.3633 6.5508 7.75 12.219 10.215 16.594-5.5273 9.7383-8.7031 20.988-8.7031 32.988 0 9.8398 2.1445 19.168 5.9531 27.578-2.7109 6.1367-6.2344 12.488-10.246 18.867-16.039-11.07-35.48-17.555-56.441-17.555-54.953 0-99.5 44.547-99.5 99.5s44.547 99.5 99.5 99.5 99.508-44.547 99.508-99.5c0-22.059-7.1914-42.449-19.344-58.941 6.5586-4.3633 12.191-7.7344 16.488-10.152 9.2695 4.8555 19.82 7.6211 31.012 7.6211 11.273 0 21.891-2.8125 31.215-7.7344 5.8984 2.9844 11.961 6.6914 18.016 10.832-11.898 16.406-18.918 36.562-18.918 58.375 0 54.953 44.543 99.5 99.496 99.5s99.5-44.547 99.5-99.5c0.003907-54.953-44.535-99.504-99.488-99.504zm-257.46-70.793c-48.406 0-87.641-39.238-87.641-87.641s39.238-87.645 87.641-87.645c48.41 0 87.645 39.246 87.645 87.645 0 18.512-5.7461 35.676-15.539 49.828-20.883-14.855-40.645-33.254-51.598-43.977 0.53125-1.8594 0.81641-3.8242 0.81641-5.8594 0-3.4648-0.83594-6.7422-2.3008-9.6367 5.8242-3.168 13.445-9.043 21.062-16.535 13.688-13.461 22.148-27.047 18.906-30.34-3.2383-3.293-16.957 4.957-30.637 18.414-7.4023 7.293-13.273 14.598-16.598 20.312-3.3711-2.2344-7.4102-3.5391-11.762-3.5391-11.781 0-21.332 9.5469-21.332 21.332 0 3.4609 0.83594 6.7305 2.2969 9.625-5.8008 3.1914-13.352 9.0234-20.887 16.445-13.676 13.461-22.141 27.047-18.906 30.34 3.2422 3.293 16.957-4.957 30.645-18.418 7.3398-7.2188 13.172-14.469 16.504-20.156 3.3555 2.207 7.3633 3.4844 11.68 3.4844 2.4922 0 4.8711-0.42578 7.1016-1.2109 19.605 17.383 34.562 35.207 45.359 50.109-14.629 10.949-32.789 17.422-52.457 17.422zm4.9609-87.922c0 2.6562-2.1523 4.8008-4.8008 4.8008-2.6484 0-4.8008-2.1523-4.8008-4.8008 0-2.6484 2.1523-4.8008 4.8008-4.8008 2.6523 0 4.8008 2.1445 4.8008 4.8008zm82.684 258.21c0 48.41-39.238 87.652-87.645 87.652s-87.641-39.246-87.641-87.652c0-48.402 39.238-87.641 87.641-87.641 18.531 0 35.719 5.75 49.867 15.562-14.508 20.703-32.613 40.414-43.539 51.711-2-0.62109-4.1211-0.96484-6.3281-0.96484-3.9141 0-7.582 1.0586-10.742 2.9102-3.3828-5.7305-10.078-13.43-18.602-21-14.352-12.738-28.477-20.266-31.551-16.812-3.0625 3.4453 6.0859 16.582 20.445 29.32 8.1992 7.2734 16.312 12.84 22.34 15.641-2.0391 3.2695-3.2188 7.1289-3.2188 11.266 0 11.781 9.5469 21.332 21.332 21.332 4.0664 0 7.8555-1.1367 11.09-3.1094 3.6719 5.4023 9.6875 12.074 17.098 18.648 14.359 12.738 28.488 20.266 31.555 16.812 3.0703-3.457-6.0859-16.594-20.445-29.32-7.3125-6.4844-14.555-11.613-20.312-14.633 1.5-2.918 2.3477-6.2109 2.3477-9.7227 0-2.3281-0.37891-4.5703-1.0703-6.668 17.434-19.711 35.309-34.715 50.176-45.5 10.809 14.578 17.203 32.625 17.203 52.168zm-82.445-0.35547c0 2.6484-2.1523 4.8008-4.8008 4.8008-2.6602 0-4.8047-2.1562-4.8047-4.8008s2.1523-4.8008 4.8047-4.8008c2.6562-0.003907 4.8008 2.1523 4.8008 4.8008zm166.02-257.57c0-48.406 39.246-87.645 87.645-87.645 48.41 0 87.645 39.246 87.645 87.645 0 48.402-39.238 87.641-87.645 87.641-19.188 0-36.926-6.1641-51.359-16.621 16.637-21.32 36.574-40.914 46.492-50.262 1.5625 0.35938 3.1914 0.55859 4.8672 0.55859 4.6328 0 8.9141-1.4766 12.41-3.9805 3.6914 5.4805 10.121 12.441 18.109 19.254 14.598 12.461 28.867 19.711 31.871 16.195 2.9961-3.5156-6.418-16.457-21.016-28.918-8.0547-6.875-16-12.156-22.02-14.926 1.2656-2.7148 1.9727-5.75 1.9727-8.9492 0-11.781-9.5469-21.332-21.332-21.332-3.6289 0-7.0508 0.91406-10.047 2.5078-3.6406-5.5508-10.215-12.723-18.445-19.738-14.598-12.461-28.867-19.711-31.863-16.195-3 3.5117 6.4062 16.457 21.012 28.918 7.7109 6.5781 15.328 11.703 21.246 14.566-2.0391 3.2695-3.2266 7.1289-3.2266 11.273 0 2.7539 0.53906 5.3945 1.4883 7.8125-17.625 18.961-35.637 33.426-50.895 43.953-10.625-14.504-16.91-32.398-16.91-51.758zm83.008-0.28516c0-2.6562 2.1523-4.8008 4.8008-4.8008 2.6484 0 4.8008 2.1523 4.8008 4.8008 0 2.6484-2.1523 4.8008-4.8008 4.8008-2.6484-0.003907-4.8008-2.1484-4.8008-4.8008zm3.2422 345.87c-48.406 0-87.641-39.246-87.641-87.652 0-19.219 6.1836-36.988 16.676-51.441 20.742 15.695 40.137 34.828 50.484 45.523-0.54688 1.8828-0.83984 3.8594-0.83984 5.918 0 3.6523 0.92578 7.1016 2.543 10.098-5.6406 3.3828-12.777 9.1914-19.887 16.457-13.418 13.727-21.609 27.461-18.312 30.699 3.3086 3.2266 16.867-5.2812 30.277-19.02 6.9609-7.1172 12.512-14.254 15.781-19.918 3.1914 1.9141 6.9219 3.0078 10.914 3.0078 11.781 0 21.332-9.5469 21.332-21.332 0-3.5781-0.89062-6.957-2.4531-9.918 5.8477-3.1797 13.652-9.375 21.426-17.328 13.41-13.727 21.609-27.473 18.305-30.711-3.3047-3.2266-16.863 5.2812-30.273 19.02-7.5 7.668-13.367 15.344-16.496 21.195-3.3828-2.2617-7.4531-3.5898-11.832-3.5898-2.4414 0-4.7812 0.41406-6.9766 1.1797-19.137-17.762-33.66-35.875-44.141-51.043 14.387-10.348 32.043-16.453 51.117-16.453 48.41 0 87.645 39.246 87.645 87.641 0.003906 48.422-39.234 87.668-87.648 87.668zm-4.9492-87.637c0-2.6484 2.1523-4.8008 4.8047-4.8008 2.6484 0 4.8008 2.1562 4.8008 4.8008 0 2.6602-2.1562 4.8086-4.8008 4.8086-2.6523 0.007812-4.8047-2.1484-4.8047-4.8086z"/>
 </g>
</svg>
