<svg viewBox="0 0 1024 1068.467" xmlns="http://www.w3.org/2000/svg"><path d="M193.224 407.782C86.51 407.782 0 321.272 0 214.558S86.51 21.334 193.224 21.334c106.715 0 193.224 86.51 193.224 193.224h-89.043c0-57.538-46.643-104.18-104.18-104.18S89.042 157.02 89.042 214.557c0 57.538 46.643 104.18 104.18 104.18zm0 637.55C86.51 1045.333 0 958.825 0 852.11s86.51-193.225 193.224-193.225v89.043c-57.538 0-104.18 46.643-104.18 104.18s46.642 104.182 104.18 104.182c57.538 0 104.18-46.643 104.18-104.18h89.044c-.127 106.663-86.56 193.097-193.212 193.223h-.012zm637.552-637.55V318.74c57.538 0 104.18-46.644 104.18-104.182s-46.642-104.18-104.18-104.18c-57.538 0-104.18 46.642-104.18 104.18H637.55c0-106.715 86.51-193.224 193.224-193.224S1024 107.844 1024 214.558c0 106.715-86.51 193.224-193.224 193.224zm0 637.55c-106.664-.126-193.098-86.56-193.224-193.21v-.013h89.043c0 57.537 46.643 104.18 104.18 104.18s104.182-46.643 104.182-104.18c0-57.54-46.643-104.182-104.18-104.182v-89.043c106.714 0 193.223 86.51 193.223 193.224s-86.51 193.223-193.224 193.223zM820.67 904.957L607.854 692.142l62.954-62.954 212.813 212.814zM353.19 437.478L140.378 224.664l62.954-62.954 212.815 212.814zM203.33 904.956l-62.953-62.954L353.19 629.188l62.955 62.954zm467.48-467.478l-62.955-62.954L820.67 161.71l62.953 62.954zM512 234.148c94.872.1 171.753 76.98 171.854 171.843v254.675c0 94.912-76.942 171.854-171.854 171.854s-171.854-76.943-171.854-171.855V406c.1-94.87 76.982-171.752 171.844-171.853h.01zm0 509.328c45.715-.05 82.76-37.096 82.81-82.806V406c0-45.734-37.075-82.81-82.81-82.81s-82.81 37.076-82.81 82.81v254.665c.05 45.715 37.096 82.76 82.806 82.81H512z"/></svg>