<?xml version="1.0" encoding="iso-8859-1"?>
<!-- Uploaded to: SVG Repo, www.svgrepo.com, Generator: SVG Repo Mixer Tools -->
<svg version="1.1" id="Layer_1" xmlns="http://www.w3.org/2000/svg" xmlns:xlink="http://www.w3.org/1999/xlink" 
	 viewBox="0 0 512.001 512.001" xml:space="preserve">
<rect x="238.626" y="191.644" style="fill:#AFB6C7;" width="34.743" height="95.693"/>
<path style="fill:#707287;" d="M256.001,122.962L256.001,122.962c-19.291,0-34.93,15.639-34.93,34.93v33.748h69.86v-33.748
	C290.931,138.601,275.292,122.962,256.001,122.962z"/>
<g>
	<path style="fill:#C7CFE2;" d="M88.442,137.129c0,8.702-27.998,15.756-62.538,15.756s-34.538-31.512,0-31.512
		S88.442,128.428,88.442,137.129z"/>
	<path style="fill:#C7CFE2;" d="M88.442,137.129c0,8.702,27.998,15.756,62.538,15.756s34.538-31.512,0-31.512
		S88.442,128.428,88.442,137.129z"/>
	<path style="fill:#C7CFE2;" d="M423.559,137.129c0,8.702,27.998,15.756,62.538,15.756s34.538-31.512,0-31.512
		C451.559,121.373,423.559,128.428,423.559,137.129z"/>
	<path style="fill:#C7CFE2;" d="M423.559,137.129c0,8.702-27.998,15.756-62.538,15.756s-34.538-31.512,0-31.512
		S423.559,128.428,423.559,137.129z"/>
</g>
<path style="opacity:0.1;enable-background:new    ;" d="M42.194,152.342c26.637-1.806,46.247-7.931,46.247-15.213
	c0-6.752-16.861-12.51-40.55-14.751C43.801,131.5,42.118,141.917,42.194,152.342z"/>
<path style="opacity:0.1;enable-background:new    ;" d="M128.991,122.377c-23.689,2.242-40.55,8-40.55,14.752
	c0,7.281,19.611,13.407,46.247,15.213C134.764,141.917,133.081,131.5,128.991,122.377z"/>
<path style="opacity:0.1;enable-background:new    ;" d="M469.806,152.342c-26.637-1.806-46.247-7.931-46.247-15.213
	c0-6.752,16.861-12.51,40.55-14.751C468.2,131.5,469.883,141.917,469.806,152.342z"/>
<path style="opacity:0.1;enable-background:new    ;" d="M383.01,122.377c23.689,2.242,40.55,8,40.55,14.752
	c0,7.281-19.611,13.407-46.247,15.213C377.237,141.917,378.919,131.5,383.01,122.377z"/>
<g>
	<path style="fill:#707287;" d="M103.114,177.454c8.931-23.221,6.124-55.373-14.673-55.373s-23.603,32.153-14.672,55.373H103.114z"
		/>
	<path style="fill:#707287;" d="M408.887,177.454c-8.931-23.221-6.124-55.373,14.673-55.373s23.604,32.153,14.673,55.373H408.887z"
		/>
</g>
<g>
	
		<rect x="62.517" y="269.067" transform="matrix(-0.203 0.9792 -0.9792 -0.203 463.4678 198.4554)" style="fill:#AFB6C7;" width="176.901" height="37.561"/>
	
		<rect x="272.606" y="269.068" transform="matrix(0.203 0.9792 -0.9792 0.203 569.6185 -124.1227)" style="fill:#AFB6C7;" width="176.901" height="37.561"/>
</g>
<polygon style="opacity:0.1;enable-background:new    ;" points="361.476,197.426 324.699,205.05 333.162,245.876 371.521,245.876 
	"/>
<rect x="238.626" y="191.644" style="opacity:0.1;enable-background:new    ;" width="34.743" height="54.237"/>
<polygon style="opacity:0.1;enable-background:new    ;" points="140.48,245.876 178.839,245.876 187.302,205.05 150.524,197.426 
	"/>
<path style="opacity:0.1;enable-background:new    ;" d="M290.931,157.892c0-7.656-2.47-14.731-6.646-20.487h-56.568
	c-4.177,5.756-6.646,12.832-6.646,20.487v33.748h69.86V157.892z"/>
<path style="fill:#C7CFE2;" d="M390.99,187.538c-0.056,0-0.111,0-0.166,0c-22.096,0-41.189-7.314-50.273-17.928
	c-2.986-3.489-7.437-5.376-12.029-5.376H183.479c-4.592,0-9.043,1.888-12.029,5.376c-9.084,10.615-28.177,17.928-50.273,17.928
	c-0.056,0-0.111,0-0.166,0c-8.686-0.015-15.782,6.906-15.782,15.592v0.162c0,8.701,7.054,15.755,15.755,15.755h270.031
	c8.701,0,15.755-7.054,15.755-15.755v-0.162C406.771,194.443,399.676,187.523,390.99,187.538z"/>
<path style="fill:#AFB6C7;" d="M92.431,160.367h-7.979c-14.08,0-24.882,12.494-22.847,26.426l3.989,27.323
	c1.656,11.343,11.384,19.755,22.847,19.755c11.463,0,21.191-8.41,22.847-19.755l3.989-27.323
	C117.313,172.86,106.51,160.367,92.431,160.367z"/>
<rect x="207.708" y="263.834" style="fill:#5B5D6E;" width="96.583" height="96.583"/>
<circle style="fill:#2A2A33;" cx="256" cy="312.126" r="24.79"/>
<circle style="fill:#FF6465;" cx="256" cy="312.126" r="7.413"/>
<path style="fill:#C7CFE2;" d="M110.703,354.97l-0.959,4.626c-2.891,13.948,6.071,27.598,20.019,30.489
	c13.948,2.891,27.598-6.071,30.489-20.018l0.959-4.626L110.703,354.97z"/>
<path style="fill:#AFB6C7;" d="M419.57,160.367h7.979c14.08,0,24.882,12.494,22.847,26.426l-3.989,27.323
	c-1.656,11.343-11.384,19.755-22.847,19.755s-21.191-8.41-22.847-19.755l-3.989-27.323
	C394.688,172.86,405.49,160.367,419.57,160.367z"/>
<path style="fill:#C7CFE2;" d="M401.298,354.97l0.959,4.626c2.891,13.948-6.071,27.598-20.018,30.489
	c-13.948,2.891-27.598-6.071-30.489-20.018l-0.959-4.626L401.298,354.97z"/>
</svg>