<svg width="73" height="61" viewBox="0 0 73 61" fill="none" xmlns="http://www.w3.org/2000/svg">
<path fill-rule="evenodd" clip-rule="evenodd" d="M72.8179 51.4644L72.8671 44.1826L55.5366 25.2539L55.7104 12.3957C56.8019 13.2772 57.6966 13.7268 57.9665 13.4642C58.3583 13.0828 57.2847 11.3442 55.5684 9.58088C53.8521 7.81759 52.1432 6.69734 51.7513 7.07874C51.3905 7.43 52.2727 8.93248 53.7551 10.5452L53.5851 23.1224L45.0003 13.7459L43.5495 10.2459C43.5767 6.22275 40.7767 0.273214 36.7535 0.24603C32.7303 0.218846 29.0275 6.22274 29.0003 10.2459L28.0003 13.7459L19.0003 23.388L19.0003 10.1807C20.5194 8.57216 21.4309 7.06681 21.0712 6.70714C20.6807 6.31662 18.9395 7.42466 17.1821 9.18202C15.4247 10.9394 14.3167 12.6806 14.7072 13.0711C14.9762 13.3401 15.8859 12.8982 17.0003 12.0229L17.0003 25.5306L0.0494898 43.6906L0.000288097 50.9724L2.50029 50.9724L2.50029 49.0001L17.0003 45.1L17.0003 56.3661C15.3491 58.0594 14.3303 59.6942 14.7072 60.0711C15.0977 60.4616 16.839 59.3536 18.5963 57.5962C20.3537 55.8389 21.4617 54.0977 21.0712 53.7071C20.8203 53.4563 20.0121 53.8238 19.0003 54.5846L19.0003 44.5621L33.5003 40.6621L33.5003 43.6906L28.0003 43.6906L28.0003 45.746L35.0003 45.746L42.5003 45.7461L42.5003 43.6906L36.7535 43.6906L36.7535 40.6621L53.2928 44.7486L53.161 54.5048C52.1695 53.7381 51.3742 53.3635 51.1225 53.6085C50.7307 53.9899 51.8043 55.7285 53.5206 57.4917C55.2369 59.255 56.9458 60.3753 57.3377 59.9939C57.7158 59.6258 56.7291 57.9938 55.1171 56.2953L55.2666 45.2362L70.5002 49.0001L70.5002 51.4643L72.8179 51.4644Z" fill="black"/>
</svg>
