<?xml version="1.0" encoding="utf-8"?>
<!-- Generator: Adobe Illustrator 23.1.0, SVG Export Plug-In . SVG Version: 6.00 Build 0)  -->
<svg version="1.1" id="Layer_1" xmlns="http://www.w3.org/2000/svg" xmlns:xlink="http://www.w3.org/1999/xlink" x="0px" y="0px"
	 viewBox="0 0 1200 1200" enable-background="new 0 0 1200 1200" xml:space="preserve">
<path fill="#1E334C" d="M783.335,351.627c25.971,1.027,51.939,2.126,77.917,2.935c1.893,0.059,3.853-1.985,5.776-3.062
	c0.084-0.047,0.104-0.202,0.163-0.301c3.504-5.855,28.717-6.287,32.534-0.625c0.468,0.695,1.614,1.301,2.459,1.319
	c8.89,0.193,17.783,0.268,26.676,0.34c0.63,0.005,1.262-0.272,1.893-0.418c-0.548-0.333-1.067-0.732-1.65-0.986
	c-1.796-0.782-3.914-1.158-5.335-2.365c-1.218-1.034-2.353-3.064-2.211-4.526c0.122-1.256,1.911-2.857,3.304-3.362
	c1.998-0.724,4.304-0.766,6.483-0.795c27.026-0.361,54.053-0.66,81.079-1.014c0.982-0.013,1.979-0.373,2.933-0.682
	c4.099-1.327,8.118-3.551,12.289-3.88c10.333-0.814,20.745-1.147,31.1-0.832c3.007,0.091,5.88,3.123,8.909,4.615
	c1.372,0.676,2.984,1.27,4.474,1.24c22.615-0.454,45.228-1.039,67.843-1.52c2.059-0.044,4.301,0,6.142,0.764
	c1.599,0.663,3.609,2.258,3.858,3.711c0.246,1.438-1.112,4.193-2.409,4.688c-11.187,4.267-22.249,9.968-33.875,11.7
	c-14.943,2.226-30.374,1.176-45.595,1.532c-0.341,0.008-0.98-0.087-0.983-0.064c-0.645,4.568-1.401,9.131-1.715,13.725
	c-0.062,0.906,1.42,2.53,2.459,2.805c10.461,2.76,11.761,4.321,11.549,15.214c-0.263,13.501-0.707,27.001-0.747,40.503
	c-0.004,1.271,2.22,2.682,3.615,3.765c0.639,0.497,2.159,0.021,2.625,0.556c4.784,5.503,9.147,11.397,14.194,16.637
	c5.87,6.094,7.272,12.368,3.487,20.095c-7.351,15.006-13.667,30.585-22.026,44.99c-2.562,4.415-10.302,7.97-15.813,8.179
	c-34.022,1.291-68.083,1.649-102.135,2.029c-14.768,0.165-29.57,0.074-44.299-0.829c-4.464-0.274-9.343-2.902-12.958-5.794
	c-5.731-4.586-10.486-10.377-15.843-15.46c-0.832-0.789-2.755-0.941-4.026-0.677c-19.523,4.057-34.728,16.232-50.544,27.207
	c-0.663,0.46-0.758,2.53-0.38,3.586c21.523,60.117,43.026,120.242,64.758,180.284c12.415,34.3,25.331,68.419,37.782,102.706
	c4.732,13.031,7.371,26.299,0.354,39.568c-2.944,5.567-7.938,8.798-13.613,7.194c-4.68-1.323-10.64-4.606-12.413-8.619
	c-8.805-19.931-16.73-40.272-24.373-60.69c-17.326-46.284-34.329-92.69-51.39-139.073c-1.791-4.868-3.629-9.825-4.487-14.902
	c-1.161-6.87-4.821-11.476-10.61-14.785c-0.681-0.389-1.4-0.711-2.102-1.063c0.059,0.834-0.032,1.712,0.2,2.494
	c5.188,17.484,10.689,34.882,15.445,52.481c1.27,4.699,1.135,10.185,0.132,14.995c-1.541,7.391-9.704,9.554-14.177,3.523
	c-4.447-5.995-7.822-13.041-10.451-20.08c-9.046-24.225-17.43-48.697-26.424-72.942c-1.281-3.452-4.066-6.759-6.981-9.111
	c-7.454-6.012-15.416-11.389-23.087-17.137c-3.519-2.637-6.528-3.151-10.561-0.41c-9.833,6.682-19.448,14.216-30.262,18.766
	c-9.699,4.081-20.8,5.673-31.428,6.514c-16.789,1.329-33.705,0.996-50.55,1.74c-1.545,0.068-3.07,2.751-4.391,4.392
	c-0.398,0.494,0.052,1.593-0.101,2.373c-1.365,6.956,1.278,10.354,8.549,10.749c6.033,0.328,8.838,3.984,8.812,10.188
	c-0.026,6.108-4.367,6.888-8.706,7.913c-1.685,0.398-3.682,0.241-5.02,1.122c-1.301,0.857-2.317,2.632-2.674,4.184
	c-0.135,0.588,1.865,2.347,2.986,2.44c13.461,1.111,26.934,2.109,40.416,2.93c10.724,0.653,13.977,3.351,14.471,14.194
	c0.646,14.182,1.239,28.404,0.89,42.584c-0.426,17.301-1.407,34.619-2.993,51.852c-1.22,13.256-5.363,16.676-18.572,16.72
	c-42.593,0.14-85.187,0.14-127.781,0c-13.378-0.044-17.964-3.179-18.563-16.591c-1.43-32.021-1.812-64.099-1.969-96.158
	c-0.046-9.389,3.946-12.002,13.371-12.57c13.829-0.834,27.647-1.862,41.456-2.978c1.044-0.084,2.921-1.755,2.789-2.279
	c-0.4-1.583-1.267-3.598-2.564-4.278c-1.966-1.031-4.888-0.46-6.609-1.686c-2.725-1.941-6.112-4.469-6.845-7.351
	c-1.262-4.962,1.212-9.012,6.944-9.971c0.227-0.038,0.449-0.108,0.674-0.164c9.141-2.254,11.756-6.657,8.993-15.842
	c-0.291-0.967-2.593-1.82-4.002-1.886c-21.335-1.005-42.731-1.238-63.987-3.095c-7.863-0.687-15.79-4.352-22.986-8.03
	c-9.119-4.66-17.374-10.984-26.342-15.981c-2.209-1.231-6.469-1.213-8.529,0.142c-8.867,5.831-17.94,11.664-25.577,18.927
	c-4.47,4.251-7.089,10.934-9.312,16.975c-8.214,22.321-15.834,44.859-23.878,67.244c-1.668,4.641-3.431,9.641-6.569,13.239
	c-2.646,3.035-7.993,6.531-10.966,5.684c-3.056-0.87-6.535-6.748-6.547-10.445c-0.025-7.478,1.551-15.136,3.583-22.408
	c3.82-13.673,8.439-27.123,12.698-40.674c0.226-0.719,0.194-1.519,0.282-2.281c-0.699,0.311-1.46,0.529-2.087,0.948
	c-4.926,3.292-8.324,7.14-10.476,13.291c-12.999,37.15-26.776,74.027-40.245,111.014c-10.314,28.323-20.44,56.715-30.91,84.98
	c-2.757,7.444-6.126,14.718-9.839,21.74c-5.271,9.971-19.012,10.206-25.09,0.676c-6.297-9.871-6.134-20.858-2.745-31.119
	c10.317-31.24,21.317-62.263,32.484-93.213c17.161-47.562,34.682-94.995,52.052-142.482c6.784-18.544,13.649-37.059,20.222-55.677
	c0.532-1.506-0.3-4.596-1.538-5.458c-15.045-10.473-29.624-21.951-48.147-25.87c-1.845-0.39-4.609,0.585-6.073,1.899
	c-5.321,4.778-9.953,10.36-15.484,14.853c-3.095,2.514-7.417,4.845-11.238,4.929c-33.591,0.738-67.194,1.217-100.793,1.201
	c-15.338-0.007-30.679-1.241-46.012-2.03c-8.37-0.43-14.979-3.361-18.702-11.784c-6.614-14.963-14.306-29.471-20.389-44.634
	c-1.559-3.887,0.258-9.953,2.239-14.221c2.382-5.132,6.205-9.788,10.157-13.932c2.613-2.739,6.656-4.068,9.843-6.332
	c1.192-0.847,2.527-2.563,2.512-3.869c-0.15-13.501-0.611-26.997-0.888-40.497c-0.218-10.632,1.361-12.5,11.407-15.027
	c1.142-0.287,2.662-2.152,2.688-3.315c0.278-12.2,0.205-12.232-11.508-12.736c-11.654-0.502-23.583,0.452-34.892-1.771
	c-12.297-2.417-24.055-7.66-35.939-11.97c-1.228-0.445-2.59-3.108-2.319-4.417c0.314-1.517,2.145-3.205,3.717-3.855
	c1.946-0.805,4.307-0.87,6.479-0.825c22.385,0.462,44.766,1.086,67.152,1.4c1.87,0.026,3.749-1.898,5.655-2.856
	c2.213-1.112,4.46-3.078,6.691-3.077c11.527,0.008,23.073,0.251,34.57,1.033c3.486,0.237,6.818,2.505,10.259,3.735
	c1.247,0.446,2.603,0.803,3.914,0.82c27.257,0.369,54.518,0.558,81.768,1.192c2.849,0.066,5.639,2.7,8.456,4.142
	c-2.315,2.156-4.6,4.345-6.965,6.444c-0.632,0.561-1.51,0.844-2.275,1.254c0.853,0.161,1.707,0.468,2.559,0.461
	c8.546-0.066,17.092-0.175,25.637-0.301c0.671-0.01,1.611,0.012,1.97-0.389c9.206-10.287,20.076-3.052,30.256-2.893
	c0.505,0.008,1.293,0.417,1.459,0.834c3.218,8.103,9.998,4.761,15.563,4.715c48.851-0.4,97.701-0.978,146.552-1.309
	c4.793-0.033,9.667,0.928,14.356,2.046c1.84,0.439,3.276,2.575,4.896,3.938c-1.476,1.681-2.73,4.521-4.464,4.853
	c-10.3,1.969-20.661,3.949-31.095,4.831c-33.72,2.852-67.447,6.076-101.241,7.372c-13.562,0.52-27.298-3.627-40.968-5.554
	c-1.058-0.149-2.222,0.458-3.337,0.713c0.925,1.354,1.588,3.096,2.852,3.946c1.115,0.749,2.897,0.532,4.39,0.69
	c6.528,0.692,9.11,3.65,8.654,10.786c-0.502,7.871,0.862,15.877,1.71,23.793c0.083,0.771,2.281,1.931,3.446,1.873
	c7.959-0.394,15.929-0.834,23.847-1.698c14.328-1.563,27.65,1.418,41.207,6.206c22.41,7.914,45.355,14.328,68.152,21.116
	c1.845,0.549,5.104-0.16,6.319-1.521c12.669-14.197,25.004-28.692,37.599-42.957c1.255-1.421,3.616-2.639,5.468-2.646
	c43.201-0.148,86.402-0.16,129.602,0.025c1.954,0.008,4.359,1.676,5.775,3.264c12.745,14.289,25.275,28.77,38.029,43.05
	c0.872,0.976,3.251,1.46,4.58,1.047c27.676-8.591,55.294-17.37,82.949-26.027c2.813-0.88,5.814-1.804,8.695-1.711
	c13.962,0.453,27.911,1.36,41.874,1.75c1.432,0.04,4.079-2.174,4.211-3.531c0.834-8.599,0.84-17.282,1.781-25.865
	c0.232-2.113,2.536-4.688,4.567-5.742c2.548-1.322,5.915-0.978,8.686-2.007c1.138-0.422,1.642-2.549,2.435-3.901
	c-1.036-0.249-2.193-0.933-3.092-0.685c-28.107,7.741-56.361,5.552-84.848,2.324c-24.886-2.82-49.967-3.895-74.942-5.983
	c-4.789-0.401-9.598-1.589-14.162-3.117c-1.687-0.565-3.609-3.109-3.701-4.842c-0.065-1.223,2.692-3.616,4.33-3.748
	c14.938-1.203,29.896-2.399,44.87-2.852c15.466-0.468,30.958-0.104,46.438-0.104C783.326,351.905,783.331,351.766,783.335,351.627z
	 M954.461,434.251c0,0.198,0,0.395,0,0.593c9.813,0,19.632,0.152,29.435-0.16c1.518-0.048,4.092-2.073,4.276-3.44
	c1.89-14.04,3.645-28.11,4.888-42.22c0.646-7.332,3.923-11.274,11.222-11.908c2.529-0.22,5.093-0.924,7.57-0.681
	c5.177,0.509,5.256-2.955,4.562-6.087c-0.243-1.098-3.411-2.429-5.044-2.204c-16.354,2.256-32.613,5.274-49.006,7.141
	c-12.874,1.467-25.915,2.371-38.848,2.072c-7.808-0.18-15.536-3.217-23.341-4.762c-1.169-0.231-2.565,0.68-3.857,1.063
	c1.138,0.802,2.281,2.299,3.414,2.291c6.691-0.048,9.496,3.457,9.309,9.71c-0.195,6.553-0.787,13.096-0.879,19.648
	c-0.015,1.081,1.669,3.148,2.528,3.127c7.264-0.174,10.792,3.491,11.054,10.397c0.147,3.894-0.642,7.828-0.428,11.712
	c0.071,1.287,1.927,3.516,3.015,3.546C934.37,434.364,944.417,434.251,954.461,434.251z M245.17,434.849c0-0.139,0-0.278,0-0.417
	c7.16,0,14.32,0.056,21.479-0.013c11.643-0.111,11.643-0.146,11.453-11.308c-0.006-0.346-0.006-0.693-0.004-1.039
	c0.076-10.207,2.051-12.314,12.151-13.581c0.708-0.089,1.675-2.192,1.655-3.343c-0.124-7.015-0.664-14.024-0.734-21.038
	c-0.051-5.088,2.609-7.767,7.927-8.046c1.588-0.083,3.096-1.684,4.641-2.589c-1.685-0.25-3.423-0.9-5.046-0.686
	c-12.723,1.679-25.584,5.739-38.099,4.841c-23.901-1.713-47.606-6.188-71.381-9.601c-4.314-0.619-7.047,0.313-5.515,5.228
	c0.411,1.317,2.6,2.851,4.063,2.95c16.507,1.114,17.405,1.651,19.605,17.575c1.733,12.549,2.849,25.184,4.548,37.739
	c0.17,1.258,2.463,3.144,3.814,3.182C225.534,434.975,235.354,434.849,245.17,434.849z M824.562,582.021
	c-3.74-11.248-7.297-21.725-10.687-32.255c-1.252-3.889-2.932-4.017-6.116-1.793c-4.528,3.163-9.466,5.737-14.057,8.818
	c-0.629,0.422-0.812,3.022-0.294,3.415c9.642,7.305,19.416,14.436,29.193,21.562C822.983,582.047,823.663,581.919,824.562,582.021z
	 M408.839,558.56c-1.029-0.797-1.659-1.383-2.378-1.826c-5.204-3.209-10.36-6.509-15.709-9.457
	c-0.845-0.465-3.498,0.373-3.777,1.157c-3.794,10.638-7.322,21.372-10.892,32.089c-0.169,0.508-0.121,1.089-0.174,1.635
	c0.595-0.179,1.296-0.213,1.771-0.558c9.512-6.913,19.001-13.858,28.485-20.811C406.993,560.182,407.748,559.474,408.839,558.56z"/>
</svg>
