<svg enable-background="new 0 0 100 100" height="100" viewBox="0 0 100 100" width="100" xmlns="http://www.w3.org/2000/svg"><path d="m86.465 56.667-8.079 8.079c-2.865-1.687-6.361-1.819-9.333-.407l-4.053-4.053v-20.573l4.053-4.053c2.972 1.415 6.468 1.281 9.333-.405l8.076 8.078 3.538-3.535-8.079-8.076c2.259-3.835 1.777-8.835-1.518-12.127-3.291-3.292-8.294-3.774-12.125-1.517l-8.08-8.078-3.531 3.535 8.079 8.08c-1.687 2.864-1.823 6.36-.407 9.333l-4.053 4.052h-20.573l-4.053-4.053c1.415-2.972 1.281-6.47-.407-9.336l8.08-8.08-3.533-3.531-8.08 8.08c-3.833-2.258-8.833-1.776-12.124 1.517-3.291 3.291-3.774 8.29-1.519 12.123l-8.077 8.075 3.535 3.539 8.078-8.08c2.866 1.688 6.364 1.821 9.336.407l4.051 4.051v20.574l-4.049 4.05c-2.976-1.413-6.473-1.279-9.339.41l-8.08-8.079-3.532 3.535 8.078 8.079c-2.254 3.835-1.771 8.831 1.521 12.122s8.288 3.773 12.121 1.521l8.075 8.076 3.539-3.535-8.076-8.076c1.688-2.868 1.821-6.364.407-9.339l4.048-4.05h20.573l4.053 4.053c-1.416 2.972-1.279 6.468.407 9.333l-8.079 8.076 3.535 3.538 8.079-8.079c3.831 2.259 8.831 1.773 12.122-1.518 3.295-3.291 3.776-8.291 1.518-12.125l8.079-8.08zm-13.132-33.334c1.843 0 3.334 1.491 3.334 3.333 0 1.843-1.491 3.333-3.334 3.333-1.842.001-3.333-1.49-3.333-3.332 0-1.843 1.491-3.334 3.333-3.334zm-46.666 6.667c-1.841 0-3.333-1.493-3.333-3.333s1.492-3.333 3.333-3.333 3.333 1.492 3.333 3.333-1.493 3.333-3.333 3.333zm0 46.667c-1.841 0-3.333-1.491-3.333-3.334 0-1.842 1.492-3.333 3.333-3.333s3.333 1.491 3.333 3.333c0 1.843-1.493 3.334-3.333 3.334zm31.666-18.334h-5v-6.666h-6.667v6.666h-5v-16.666h16.667zm15 18.334c-1.842 0-3.333-1.491-3.333-3.334 0-1.842 1.491-3.333 3.333-3.333 1.843 0 3.334 1.491 3.334 3.333 0 1.843-1.491 3.334-3.334 3.334z"/></svg>