<?xml version="1.0" encoding="UTF-8"?>
<svg width="500pt" height="500pt" version="1.1" viewBox="100 30 500 500" xmlns="http://www.w3.org/2000/svg" xmlns:xlink="http://www.w3.org/1999/xlink">

 <g>
  <path d="m558.24 311.29c-11.488-11.488-24.867-20.508-39.77-26.809-3.7695-1.5938-7.5938-2.9961-11.473-4.2031 3.875-1.2109 7.7031-2.6094 11.473-4.2031 14.902-6.3047 28.281-15.324 39.77-26.809 11.488-11.488 20.508-24.867 26.809-39.77 6.5273-15.434 9.8398-31.824 9.8398-48.711 0-16.887-3.3086-33.273-9.8398-48.711-6.3047-14.902-15.324-28.281-26.809-39.77-11.488-11.488-24.867-20.508-39.77-26.809-15.434-6.5273-31.824-9.8398-48.711-9.8398s-33.273 3.3086-48.711 9.8398c-14.902 6.3047-28.281 15.324-39.77 26.809-11.488 11.488-20.508 24.867-26.809 39.77-1.5938 3.7695-2.9961 7.5938-4.2031 11.473-1.2109-3.875-2.6094-7.7031-4.2031-11.473-6.3047-14.902-15.324-28.281-26.809-39.77-11.488-11.488-24.867-20.508-39.77-26.809-15.434-6.5312-31.82-9.8398-48.707-9.8398s-33.273 3.3086-48.711 9.8359c-14.902 6.3047-28.281 15.324-39.77 26.809-11.488 11.488-20.508 24.867-26.809 39.77-6.5273 15.438-9.8359 31.824-9.8359 48.711s3.3086 33.273 9.8398 48.711c6.3047 14.902 15.324 28.281 26.809 39.77 11.488 11.488 24.867 20.508 39.77 26.809 3.7695 1.5938 7.5938 2.9961 11.473 4.2031-3.875 1.2109-7.7031 2.6094-11.473 4.2031-14.902 6.3047-28.281 15.324-39.77 26.809-11.488 11.488-20.508 24.867-26.809 39.77-6.5273 15.434-9.8398 31.824-9.8398 48.711s3.3086 33.273 9.8398 48.711c6.3047 14.902 15.324 28.281 26.809 39.77 11.488 11.488 24.867 20.508 39.77 26.809 15.434 6.5273 31.824 9.8398 48.711 9.8398 16.887 0 33.273-3.3086 48.711-9.8398 14.902-6.3047 28.281-15.324 39.77-26.809 11.488-11.488 20.508-24.867 26.809-39.77 1.5938-3.7695 2.9961-7.5938 4.2031-11.473 1.2109 3.875 2.6094 7.7031 4.2031 11.473 6.3047 14.902 15.324 28.281 26.809 39.77 11.488 11.488 24.867 20.508 39.77 26.809 15.434 6.5273 31.824 9.8398 48.711 9.8398s33.273-3.3086 48.711-9.8398c14.902-6.3047 28.281-15.324 39.77-26.809 11.488-11.488 20.508-24.867 26.809-39.77 6.5273-15.434 9.8398-31.824 9.8398-48.711s-3.3086-33.273-9.8398-48.711c-6.3086-14.898-15.328-28.281-26.816-39.766zm-88.477-248.51c54.035 0 98 43.961 98 98 0 54.035-43.965 98-98 98-20.703 0-39.93-6.4531-55.77-17.453 10.492-18.586 36.797-44.82 45.117-52.898 3.3086 1.2773 6.8984 1.9805 10.652 1.9805 5.9961 0 11.578-1.793 16.246-4.8633 2.1836 6.375 8.1445 15.102 16.488 23.445 13.207 13.207 27.379 20.453 31.648 16.18 4.2734-4.2695-2.9727-18.441-16.18-31.648-8.3438-8.3438-17.07-14.305-23.445-16.488 3.0742-4.668 4.8633-10.25 4.8633-16.246 0-16.336-13.289-29.625-29.625-29.625-5.9961 0-11.578 1.793-16.246 4.8633-2.1836-6.375-8.1445-15.102-16.488-23.445-13.207-13.207-27.379-20.453-31.648-16.18-4.2695 4.2695 2.9727 18.441 16.18 31.648 8.3438 8.3438 17.07 14.305 23.445 16.488-3.0742 4.668-4.8633 10.25-4.8633 16.246 0 3.4492 0.59375 6.7656 1.6836 9.8477-7.7617 8.0078-34.254 34.656-53.023 45.305-10.742-15.723-17.031-34.715-17.031-55.152-0.003906-54.039 43.961-98.004 97.996-98.004zm-14.125 98c0-7.7891 6.3359-14.125 14.125-14.125s14.125 6.3359 14.125 14.125-6.3359 14.125-14.125 14.125-14.125-6.3359-14.125-14.125zm-322.86 0c0-54.035 43.961-98 98-98 54.035 0 98 43.965 98 98 0 20.434-6.2891 39.43-17.031 55.148-18.309-9.7773-44.828-36.305-53.176-44.891 1.1836-3.1992 1.832-6.6562 1.832-10.258 0-5.9961-1.793-11.578-4.8633-16.246 6.375-2.1836 15.102-8.1445 23.445-16.488 13.207-13.207 20.453-27.379 16.18-31.648-4.2734-4.2734-18.441 2.9727-31.648 16.18-8.3438 8.3438-14.305 17.07-16.488 23.445-4.668-3.0742-10.25-4.8633-16.246-4.8633-16.336 0-29.625 13.289-29.625 29.625 0 5.9961 1.793 11.578 4.8633 16.246-6.375 2.1836-15.102 8.1445-23.445 16.488-13.207 13.207-20.453 27.379-16.18 31.648 4.2695 4.2695 18.441-2.9727 31.648-16.18 8.3438-8.3438 14.305-17.07 16.488-23.445 4.668 3.0742 10.25 4.8633 16.246 4.8633 3.6055 0 7.0625-0.64844 10.258-1.832 8.5859 8.3438 35.109 34.863 44.891 53.176-15.719 10.742-34.715 17.031-55.148 17.031-54.035 0-98-43.965-98-98zm98 14.125c-7.7891 0-14.125-6.3359-14.125-14.125s6.3359-14.125 14.125-14.125 14.125 6.3359 14.125 14.125-6.3359 14.125-14.125 14.125zm0 322.86c-54.035 0-98-43.961-98-98 0-54.035 43.965-98 98-98 20.438 0 39.43 6.2891 55.152 17.031-10.648 18.773-37.297 45.262-45.305 53.023-3.082-1.0898-6.3945-1.6836-9.8477-1.6836-5.9961 0-11.578 1.793-16.246 4.8633-2.1836-6.375-8.1445-15.102-16.488-23.445-13.207-13.207-27.379-20.453-31.648-16.18-4.2695 4.2695 2.9727 18.441 16.18 31.648 8.3438 8.3438 17.07 14.305 23.445 16.492-3.0742 4.668-4.8633 10.25-4.8633 16.246 0 16.336 13.289 29.625 29.625 29.625 5.9961 0 11.578-1.793 16.246-4.8633 2.1836 6.375 8.1445 15.102 16.488 23.445 13.207 13.207 27.379 20.453 31.648 16.18 4.2734-4.2695-2.9727-18.441-16.18-31.648-8.3438-8.3438-17.07-14.305-23.445-16.488 3.0742-4.668 4.8633-10.25 4.8633-16.246 0-3.7539-0.70312-7.3438-1.9805-10.652 8.0781-8.3203 34.312-34.625 52.898-45.117 11 15.84 17.457 35.066 17.457 55.77 0 54.035-43.965 98-98 98zm14.125-98c0 7.7891-6.3359 14.125-14.125 14.125s-14.125-6.3359-14.125-14.125 6.3359-14.125 14.125-14.125 14.125 6.3359 14.125 14.125zm224.86 98c-54.035 0-98-43.961-98-98 0-20.516 6.3359-39.578 17.156-55.332 18.703 10.293 45.465 37.258 53.043 45.086-1.1797 3.1953-1.8281 6.6484-1.8281 10.246 0 5.9961 1.793 11.578 4.8633 16.246-6.375 2.1836-15.102 8.1445-23.445 16.488-13.207 13.207-20.453 27.379-16.18 31.648 4.2695 4.2695 18.441-2.9727 31.648-16.18 8.3438-8.3438 14.305-17.07 16.492-23.445 4.668 3.0742 10.25 4.8633 16.246 4.8633 16.336 0 29.625-13.289 29.625-29.625 0-5.9961-1.793-11.578-4.8633-16.246 6.375-2.1836 15.102-8.1445 23.445-16.488 13.207-13.207 20.453-27.379 16.18-31.648-4.2695-4.2734-18.441 2.9727-31.648 16.18-8.3438 8.3438-14.305 17.07-16.488 23.445-4.668-3.0742-10.25-4.8633-16.246-4.8633-3.6016 0-7.0508 0.64453-10.246 1.8281-7.8281-7.5781-34.793-34.34-45.086-53.043 15.758-10.816 34.816-17.156 55.332-17.156 54.035 0 98 43.961 98 98-0.003906 54.035-43.965 97.996-98 97.996zm0-112.12c7.7891 0 14.125 6.3359 14.125 14.125s-6.3359 14.125-14.125 14.125-14.125-6.3359-14.125-14.125 6.3359-14.125 14.125-14.125z"/>

 </g>
</svg>
