<svg width="93" height="92" viewBox="0 0 93 92" fill="none" xmlns="http://www.w3.org/2000/svg">
<path fill-rule="evenodd" clip-rule="evenodd" d="M59.0709 30.191L68.9742 13.0381C75.9664 16.78 81.9523 18.5595 82.8286 17.0416C83.705 15.5237 79.1709 11.2296 72.4343 7.04507L72.4542 7.0105L70.2892 5.7605L68.9901 5.0105L68.983 5.02286C61.6196 0.957184 55.1626 -1.03955 54.2498 0.541595C53.3369 2.12271 58.2946 6.71622 65.4973 11.0603L55.6068 28.191L47.5 23.5105L39.1929 28.3066L28.9343 10.5381C35.6709 6.35361 40.205 2.05948 39.3286 0.541595C38.4523 -0.976318 32.4664 0.803192 25.4742 4.54507L25.4542 4.5105L23.2892 5.7605L21.9901 6.5105L21.9973 6.52286C14.7946 10.8669 9.83691 15.4604 10.7498 17.0416C11.6626 18.6227 18.1196 16.626 25.483 12.5603L35.7288 30.3066L27.1484 35.2605V44.5105H6.96008C6.70459 36.5841 5.25269 30.5105 3.5 30.5105C1.74731 30.5105 0.29541 36.5841 0.039917 44.5105H0V47.0105V48.5105H0.0142822C0.175049 56.9203 1.67432 63.5105 3.5 63.5105C5.32568 63.5105 6.82495 56.9203 6.98572 48.5105H27.1484V58.7605L33.625 62.4998L24.6044 78.1239C17.6122 74.382 11.6263 72.6025 10.75 74.1204C9.87366 75.6383 14.4077 79.9324 21.1443 84.1169L21.1244 84.1515L23.2894 85.4015L24.5885 86.1515L24.5956 86.1391C31.959 90.2048 38.416 92.2015 39.3289 90.6204C40.2417 89.0393 35.2841 84.4458 28.0813 80.1017L37.0891 64.4998L47.5 70.5105L56.729 65.1821L65.6443 80.6239C58.9077 84.8084 54.3737 89.1025 55.25 90.6204C56.1263 92.1383 62.1122 90.3588 69.1044 86.6169L69.1244 86.6515L71.2894 85.4015L72.5885 84.6515L72.5813 84.6391C79.7841 80.295 84.7417 75.7015 83.8289 74.1204C82.916 72.5393 76.459 74.536 69.0956 78.6017L60.1931 63.1821L67.8516 58.7605V49.5105H86.0399C86.2954 57.4369 87.7473 63.5105 89.5 63.5105C91.2527 63.5105 92.7046 57.4369 92.9601 49.5105H93V47.0105V45.5105H92.9857C92.825 37.1007 91.3257 30.5105 89.5 30.5105C87.6743 30.5105 86.175 37.1007 86.0143 45.5105H67.8516V35.2605L59.0709 30.191Z" fill="black"/>
</svg>
