<svg width="189" height="100" viewBox="0 0 189 100" fill="none" xmlns="http://www.w3.org/2000/svg">
<g filter="url(#filter0_i_515_194)">
<path d="M50.5271 48.0609L50.5394 66.4046C49.79 67.2593 48.6447 68.1767 47.1037 69.1569C45.5836 70.1371 43.6362 70.9822 41.2617 71.6921C38.8871 72.3812 36.054 72.7268 32.7624 72.729C29.7832 72.731 27.0745 72.2537 24.6364 71.297C22.1983 70.3194 20.1035 68.8938 18.3523 67.0199C16.601 65.1253 15.2453 62.8137 14.2851 60.0851C13.3458 57.3566 12.875 54.2319 12.8726 50.7111L12.8708 48.0236C12.8685 44.5028 13.3351 41.3774 14.2708 38.6476C15.2065 35.9179 16.5278 33.6149 18.2349 31.7387C19.942 29.8418 21.9723 28.4029 24.3258 27.4222C26.6793 26.4414 29.2831 25.9501 32.1373 25.9482C36.1998 25.9455 39.5232 26.5995 42.1074 27.9103C44.6916 29.2002 46.6511 30.9906 47.986 33.2813C49.3417 35.5721 50.1768 38.2069 50.4913 41.1859L40.6788 41.1925C40.4694 39.6718 40.0519 38.3596 39.4261 37.2558C38.8212 36.152 37.9561 35.3089 36.8307 34.7263C35.7053 34.1229 34.2467 33.8218 32.4551 33.823C31.0176 33.8239 29.7157 34.1269 28.5494 34.7318C27.404 35.3159 26.4358 36.202 25.645 37.39C24.8541 38.5781 24.2509 40.0576 23.8354 41.8287C23.4199 43.579 23.213 45.6208 23.2145 47.9542L23.2164 50.7042C23.2179 53.0375 23.4276 55.0894 23.8455 56.86C24.2842 58.6305 24.9206 60.1093 25.7547 61.2962C26.5888 62.4623 27.6415 63.347 28.9127 63.9504C30.2048 64.5537 31.705 64.8547 33.4133 64.8536C34.7467 64.8527 35.8716 64.7478 36.7881 64.5388C37.7046 64.3091 38.4545 64.0273 39.0376 63.6936C39.6207 63.339 40.0579 63.0158 40.3494 62.7239L40.3444 55.1614L32.2506 55.1669L32.2459 48.0731L50.5271 48.0609ZM57.4815 26.5875L74.9502 26.5758C78.4294 26.5734 81.4402 27.0923 83.9825 28.1322C86.5457 29.1722 88.5155 30.7125 89.8919 32.7533C91.2682 34.794 91.9574 37.3144 91.9594 40.3144C91.9611 42.8144 91.5563 44.9397 90.7449 46.6902C89.9336 48.4407 88.7888 49.8894 87.3104 51.0363C85.8528 52.1831 84.1451 53.1113 82.1872 53.8209L78.8759 55.6357L64.0009 55.6456L63.9331 47.7394L74.9956 47.732C76.5165 47.731 77.7767 47.4593 78.7763 46.917C79.776 46.3746 80.5255 45.6137 81.0248 44.6342C81.545 43.6339 81.8046 42.467 81.8037 41.1337C81.8028 39.7587 81.5416 38.5714 81.0201 37.5717C80.4986 36.5721 79.7272 35.8122 78.7061 35.292C77.7057 34.751 76.4555 34.481 74.9555 34.482L67.6743 34.4869L67.6994 72.0806L57.5119 72.0875L57.4815 26.5875ZM82.6994 72.0706L72.4672 51.8587L83.2171 51.8202L93.6054 71.5945L93.6057 72.0633L82.6994 72.0706ZM115.068 61.9552L125.169 26.5422L136.513 26.5346L120.949 72.045L113.543 72.0499L115.068 61.9552ZM105.825 26.5551L115.943 61.9546L117.543 72.0473L110.043 72.0523L94.5127 26.5627L105.825 26.5551ZM166.033 56.7648L176.158 56.758C175.993 59.8831 175.141 62.6441 173.601 65.041C172.082 67.417 169.968 69.283 167.261 70.639C164.554 71.9741 161.335 72.6429 157.606 72.6454C154.627 72.6474 151.96 72.1388 149.605 71.1196C147.25 70.1003 145.249 68.6433 143.602 66.7486C141.976 64.833 140.724 62.5317 139.848 59.8448C138.992 57.1371 138.562 54.0853 138.56 50.6894L138.558 47.9082C138.556 44.5124 139.002 41.46 139.896 38.751C140.79 36.0421 142.07 33.7288 143.735 31.811C145.4 29.8932 147.399 28.4231 149.732 27.4007C152.065 26.3783 154.669 25.8662 157.544 25.8642C161.419 25.8616 164.69 26.5574 167.357 27.9514C170.025 29.3455 172.089 31.2607 173.549 33.6973C175.03 36.1338 175.917 38.9144 176.211 42.0392L166.054 42.046C165.97 40.2753 165.635 38.7859 165.051 37.578C164.467 36.3492 163.571 35.4227 162.362 34.7985C161.153 34.1743 159.549 33.8629 157.549 33.8642C156.091 33.8652 154.809 34.1369 153.706 34.6793C152.623 35.2217 151.717 36.066 150.989 37.2124C150.281 38.3587 149.751 39.8174 149.398 41.5884C149.045 43.3387 148.869 45.4221 148.871 47.8388L148.873 50.6825C148.874 53.0784 149.032 55.1512 149.346 56.901C149.659 58.6508 150.16 60.0983 150.848 61.2437C151.558 62.3891 152.464 63.2426 153.569 63.8044C154.673 64.3662 156.017 64.6465 157.601 64.6454C159.413 64.6442 160.923 64.362 162.131 63.7987C163.339 63.2145 164.266 62.3389 164.911 61.1718C165.556 60.0047 165.93 58.5357 166.033 56.7648Z" fill="#0904D8"/>
</g>
<defs>
<filter id="filter0_i_515_194" x="12.8561" y="25.8517" width="163.375" height="46.8906" filterUnits="userSpaceOnUse" color-interpolation-filters="sRGB">
<feFlood flood-opacity="0" result="BackgroundImageFix"/>
<feBlend mode="normal" in="SourceGraphic" in2="BackgroundImageFix" result="shape"/>
<feColorMatrix in="SourceAlpha" type="matrix" values="0 0 0 0 0 0 0 0 0 0 0 0 0 0 0 0 0 0 127 0" result="hardAlpha"/>
<feOffset/>
<feGaussianBlur stdDeviation="29.85"/>
<feComposite in2="hardAlpha" operator="arithmetic" k2="-1" k3="1"/>
<feColorMatrix type="matrix" values="0 0 0 0 0.227569 0 0 0 0 0.298979 0 0 0 0 0.941667 0 0 0 1 0"/>
<feBlend mode="normal" in2="shape" result="effect1_innerShadow_515_194"/>
</filter>
</defs>
</svg>
